<svg width="60" height="60" viewBox="0 0 60 60" fill="none" xmlns="http://www.w3.org/2000/svg">
<g clip-path="url(#clip0_186_21)">
<path d="M30.66 3.9C35.478 3.9 39.8093 4.63 43.654 6.09C47.4987 7.55 50.5403 9.71566 52.779 12.587C55.0663 15.4097 56.21 18.865 56.21 22.953H40.807C40.807 20.8603 39.8823 19.1813 38.033 17.916C36.1837 16.602 33.945 15.945 31.317 15.945C27.521 15.945 24.6497 16.967 22.703 19.011C20.7563 21.0063 19.783 23.8533 19.783 27.552V32.224C19.783 35.9227 20.7563 38.794 22.703 40.838C24.6497 42.8333 27.521 43.831 31.317 43.831C33.945 43.831 36.1837 43.2227 38.033 42.006C39.8823 40.7407 40.807 39.1347 40.807 37.188H29.419V26.968H56.21V55H47.888L46.282 50.036C41.7073 53.9293 35.7213 55.876 28.324 55.876C20.002 55.876 13.7483 53.7103 9.563 49.379C5.37767 44.999 3.285 38.502 3.285 29.888C3.285 21.3713 5.64533 14.923 10.366 10.543C15.1353 6.11433 21.9 3.9 30.66 3.9Z" fill="#6886C5"/>
<path d="M43.654 6.09L43.4765 6.55743L43.4765 6.55743L43.654 6.09ZM52.779 12.587L52.3846 12.8945L52.3905 12.9018L52.779 12.587ZM56.21 22.953V23.453H56.71V22.953H56.21ZM40.807 22.953H40.307V23.453H40.807V22.953ZM38.033 17.916L37.7434 18.3237L37.7507 18.3287L38.033 17.916ZM22.703 19.011L23.0609 19.3602L23.0651 19.3558L22.703 19.011ZM22.703 40.838L22.3409 41.1829L22.3451 41.1872L22.703 40.838ZM38.033 42.006L38.3079 42.4238L38.3153 42.4187L38.033 42.006ZM40.807 37.188H41.307V36.688H40.807V37.188ZM29.419 37.188H28.919V37.688H29.419V37.188ZM29.419 26.968V26.468H28.919V26.968H29.419ZM56.21 26.968H56.71V26.468H56.21V26.968ZM56.21 55V55.5H56.71V55H56.21ZM47.888 55L47.4123 55.1539L47.5242 55.5H47.888V55ZM46.282 50.036L46.7577 49.8821L46.5275 49.1705L45.9579 49.6552L46.282 50.036ZM9.563 49.379L9.2015 49.7244L9.20344 49.7264L9.563 49.379ZM10.366 10.543L10.7061 10.9095L10.7062 10.9094L10.366 10.543ZM30.66 4.4C35.4276 4.4 39.6974 5.12231 43.4765 6.55743L43.8315 5.62257C39.9213 4.13768 35.5284 3.4 30.66 3.4V4.4ZM43.4765 6.55743C47.247 7.98925 50.2093 10.1043 52.3847 12.8944L53.1733 12.2796C50.8714 9.32705 47.7504 7.11074 43.8315 5.62257L43.4765 6.55743ZM52.3905 12.9018C54.5967 15.6243 55.71 18.9644 55.71 22.953H56.71C56.71 18.7656 55.536 15.1951 53.1675 12.2722L52.3905 12.9018ZM56.21 22.453H40.807V23.453H56.21V22.453ZM41.307 22.953C41.307 20.6819 40.2895 18.8541 38.3153 17.5033L37.7507 18.3287C39.4752 19.5086 40.307 21.0387 40.307 22.953H41.307ZM38.3226 17.5084C36.3758 16.1252 34.0318 15.445 31.317 15.445V16.445C33.8582 16.445 35.9915 17.0788 37.7434 18.3236L38.3226 17.5084ZM31.317 15.445C27.4331 15.445 24.4111 16.4925 22.3409 18.6662L23.0651 19.3558C24.8882 17.4415 27.6089 16.445 31.317 16.445V15.445ZM22.3451 18.6618C20.2807 20.7779 19.283 23.7668 19.283 27.552H20.283C20.283 23.9398 21.232 21.2348 23.0609 19.3602L22.3451 18.6618ZM19.283 27.552V32.224H20.283V27.552H19.283ZM19.283 32.224C19.283 36.0099 20.2809 39.0198 22.3409 41.1828L23.0651 40.4932C21.2317 38.5682 20.283 35.8354 20.283 32.224H19.283ZM22.3451 41.1872C24.4159 43.3098 27.4364 44.331 31.317 44.331V43.331C27.6056 43.331 24.8834 42.3569 23.0609 40.4888L22.3451 41.1872ZM31.317 44.331C34.0241 44.331 36.3626 43.7034 38.3078 42.4237L37.7582 41.5883C36.0047 42.7419 33.8659 43.331 31.317 43.331V44.331ZM38.3153 42.4187C40.2771 41.0764 41.307 39.3266 41.307 37.188H40.307C40.307 38.9427 39.4876 40.4049 37.7507 41.5933L38.3153 42.4187ZM40.807 36.688H29.419V37.688H40.807V36.688ZM29.919 37.188V26.968H28.919V37.188H29.919ZM29.419 27.468H56.21V26.468H29.419V27.468ZM55.71 26.968V55H56.71V26.968H55.71ZM56.21 54.5H47.888V55.5H56.21V54.5ZM48.3637 54.8461L46.7577 49.8821L45.8063 50.1899L47.4123 55.1539L48.3637 54.8461ZM45.9579 49.6552C41.4933 53.455 35.6311 55.376 28.324 55.376V56.376C35.8116 56.376 41.9214 54.4037 46.6061 50.4168L45.9579 49.6552ZM28.324 55.376C20.0845 55.376 13.9823 53.2329 9.92256 49.0316L9.20344 49.7264C13.5144 54.1878 19.9195 56.376 28.324 56.376V55.376ZM9.9245 49.0336C5.85963 44.7796 3.785 38.4277 3.785 29.888H2.785C2.785 38.5763 4.89571 45.2184 9.20151 49.7244L9.9245 49.0336ZM3.785 29.888C3.785 21.4634 6.1174 15.1671 10.7061 10.9095L10.0259 10.1765C5.17327 14.6789 2.785 21.2793 2.785 29.888H3.785ZM10.7062 10.9094C15.355 6.5927 21.9817 4.4 30.66 4.4V3.4C21.8183 3.4 14.9157 5.63596 10.0258 10.1766L10.7062 10.9094Z" fill="black"/>
</g>
<defs>
<clipPath id="clip0_186_21">
<rect width="60" height="60" rx="10" fill="white"/>
</clipPath>
</defs>
</svg>
