<svg width="23" height="22" viewBox="0 0 23 22" fill="none" xmlns="http://www.w3.org/2000/svg">
<path d="M11.6 -1.43051e-06C13.58 -1.43051e-06 15.36 0.299999 16.94 0.899999C18.52 1.5 19.77 2.39 20.69 3.57C21.63 4.73 22.1 6.15 22.1 7.83H15.77C15.77 6.97 15.39 6.28 14.63 5.76C13.87 5.22 12.95 4.95 11.87 4.95C10.31 4.95 9.13 5.37 8.33 6.21C7.53 7.03 7.13 8.2 7.13 9.72V11.64C7.13 13.16 7.53 14.34 8.33 15.18C9.13 16 10.31 16.41 11.87 16.41C12.95 16.41 13.87 16.16 14.63 15.66C15.39 15.14 15.77 14.48 15.77 13.68H11.09V9.48H22.1V21H18.68L18.02 18.96C16.14 20.56 13.68 21.36 10.64 21.36C7.22 21.36 4.65 20.47 2.93 18.69C1.21 16.89 0.35 14.22 0.35 10.68C0.35 7.18 1.32 4.53 3.26 2.73C5.22 0.909999 8 -1.43051e-06 11.6 -1.43051e-06Z" fill="#6886C5"/>
<path d="M16.94 0.9L16.7625 1.36743H16.7625L16.94 0.9ZM20.69 3.57L20.2956 3.87749L20.3015 3.88479L20.69 3.57ZM22.1 7.83V8.33H22.6V7.83H22.1ZM15.77 7.83H15.27V8.33H15.77V7.83ZM14.63 5.76L14.3404 6.16765L14.3477 6.17265L14.63 5.76ZM8.33 6.21L8.68792 6.55919L8.69207 6.55483L8.33 6.21ZM8.33 15.18L7.96791 15.5249L7.97211 15.5292L8.33 15.18ZM14.63 15.66L14.9049 16.0778L14.9123 16.0727L14.63 15.66ZM15.77 13.68H16.27V13.18H15.77V13.68ZM11.09 13.68H10.59V14.18H11.09V13.68ZM11.09 9.48V8.98H10.59V9.48H11.09ZM22.1 9.48H22.6V8.98H22.1V9.48ZM22.1 21V21.5H22.6V21H22.1ZM18.68 21L18.2043 21.1539L18.3162 21.5H18.68V21ZM18.02 18.96L18.4957 18.8061L18.2655 18.0945L17.6959 18.5792L18.02 18.96ZM2.93 18.69L2.5685 19.0354L2.57044 19.0374L2.93 18.69ZM3.26 2.73L3.60008 3.09653L3.60023 3.0964L3.26 2.73ZM11.6 0.499999C13.5296 0.499999 15.248 0.792312 16.7625 1.36743L17.1175 0.432569C15.472 -0.192315 13.6304 -0.500001 11.6 -0.500001V0.499999ZM16.7625 1.36743C18.2683 1.93925 19.439 2.77861 20.2957 3.87743L21.0843 3.26257C20.101 2.00139 18.7717 1.06075 17.1175 0.432569L16.7625 1.36743ZM20.3015 3.88479C21.1604 4.94461 21.6 6.24942 21.6 7.83H22.6C22.6 6.05058 22.0996 4.51538 21.0785 3.25521L20.3015 3.88479ZM22.1 7.33H15.77V8.33H22.1V7.33ZM16.27 7.83C16.27 6.7916 15.7971 5.95274 14.9123 5.34735L14.3477 6.17265C14.9829 6.60726 15.27 7.1484 15.27 7.83H16.27ZM14.9196 5.35241C14.0621 4.74315 13.0368 4.45 11.87 4.45V5.45C12.8632 5.45 13.6779 5.69684 14.3404 6.16759L14.9196 5.35241ZM11.87 4.45C10.2221 4.45 8.89146 4.89547 7.96793 5.86517L8.69207 6.55483C9.36855 5.84453 10.3979 5.45 11.87 5.45V4.45ZM7.97211 5.86084C7.05433 6.80157 6.63 8.11349 6.63 9.72H7.63C7.63 8.28651 8.00568 7.25843 8.68789 6.55916L7.97211 5.86084ZM6.63 9.72V11.64H7.63V9.72H6.63ZM6.63 11.64C6.63 13.2473 7.0546 14.5658 7.96793 15.5248L8.69207 14.8352C8.0054 14.1142 7.63 13.0727 7.63 11.64H6.63ZM7.97211 15.5292C8.89626 16.4764 10.2254 16.91 11.87 16.91V15.91C10.3946 15.91 9.36374 15.5236 8.68789 14.8308L7.97211 15.5292ZM11.87 16.91C13.0291 16.91 14.049 16.6408 14.9048 16.0777L14.3552 15.2423C13.691 15.6792 12.8709 15.91 11.87 15.91V16.91ZM14.9123 16.0727C15.7847 15.4758 16.27 14.672 16.27 13.68H15.27C15.27 14.288 14.9953 14.8042 14.3477 15.2473L14.9123 16.0727ZM15.77 13.18H11.09V14.18H15.77V13.18ZM11.59 13.68V9.48H10.59V13.68H11.59ZM11.09 9.98H22.1V8.98H11.09V9.98ZM21.6 9.48V21H22.6V9.48H21.6ZM22.1 20.5H18.68V21.5H22.1V20.5ZM19.1557 20.8461L18.4957 18.8061L17.5443 19.1139L18.2043 21.1539L19.1557 20.8461ZM17.6959 18.5792C15.9259 20.0856 13.5897 20.86 10.64 20.86V21.86C13.7703 21.86 16.3541 21.0344 18.3441 19.3408L17.6959 18.5792ZM10.64 20.86C7.30252 20.86 4.88394 19.9926 3.28956 18.3426L2.57044 19.0374C4.41606 20.9474 7.13748 21.86 10.64 21.86V20.86ZM3.2915 18.3446C1.69196 16.6706 0.85 14.1457 0.85 10.68H-0.15C-0.15 14.2943 0.728041 17.1094 2.56851 19.0354L3.2915 18.3446ZM0.85 10.68C0.85 7.27206 1.79206 4.77407 3.60008 3.09653L2.91992 2.36347C0.847937 4.28592 -0.15 7.08794 -0.15 10.68H0.85ZM3.60023 3.0964C5.43964 1.38837 8.08175 0.499999 11.6 0.499999V-0.500001C7.91825 -0.500001 5.00036 0.431626 2.91977 2.3636L3.60023 3.0964Z" fill="black"/>
</svg>
